<?xml version="1.0" encoding="utf-8"?>
<!-- Generator: Adobe Illustrator 18.0.0, SVG Export Plug-In . SVG Version: 6.00 Build 0)  -->
<!DOCTYPE svg PUBLIC "-//W3C//DTD SVG 1.1//EN" "http://www.w3.org/Graphics/SVG/1.1/DTD/svg11.dtd">
<svg version="1.1" id="图层_1" xmlns="http://www.w3.org/2000/svg" xmlns:xlink="http://www.w3.org/1999/xlink" x="0px" y="0px"
	 viewBox="0 0 50 50" enable-background="new 0 0 50 50" xml:space="preserve">
<g>
	<path fill="#FFFFFF" d="M33.5,27.7c-0.4,0-0.8-0.1-1.2-0.4c-1-0.6-1.2-2-0.6-2.9l7.1-10.5c1.7-2.6,1-6-1.5-7.8
		c-2.6-1.7-6-1-7.8,1.5l-7,10.3c-0.6,1-2,1.2-2.9,0.6c-1-0.6-1.2-2-0.6-2.9l7-10.3c3-4.5,9.1-5.7,13.6-2.6c4.5,3,5.7,9.1,2.6,13.6
		l-7.1,10.5C34.8,27.4,34.2,27.7,33.5,27.7z"/>
</g>
<g>
	<path fill="#FFFFFF" d="M14.8,49.4c-1.9,0-3.8-0.6-5.4-1.7c-2.2-1.5-3.6-3.7-4.1-6.3c-0.5-2.6,0-5.2,1.5-7.3l7-10.3
		c0.6-1,2-1.2,2.9-0.6c1,0.6,1.2,2,0.6,2.9l-7,10.3c-0.8,1.2-1.1,2.7-0.8,4.2c0.3,1.5,1.1,2.7,2.4,3.6c1.2,0.8,2.7,1.1,4.2,0.8
		c1.5-0.3,2.7-1.1,3.6-2.4l7.1-10.5c0.6-1,2-1.2,2.9-0.6c1,0.6,1.2,2,0.6,2.9l-7.1,10.5c-1.5,2.2-3.7,3.6-6.3,4.1
		C16,49.3,15.4,49.4,14.8,49.4z"/>
</g>
<g>
	<path fill="#FFFFFF" d="M20.9,32.7c-0.4,0-0.8-0.1-1.2-0.4c-1-0.6-1.2-2-0.6-2.9l7.5-11.1c0.6-1,2-1.2,2.9-0.6c1,0.6,1.2,2,0.6,2.9
		l-7.5,11.1C22.2,32.4,21.5,32.7,20.9,32.7z"/>
</g>
</svg>
